<mxfile host="drawio-plugin" modified="2022-09-15T07:58:11.043Z" agent="5.0 (Macintosh; Intel Mac OS X 12_5_1) AppleWebKit/537.36 (KHTML, like Gecko) Chrome/89.0.4389.114 Safari/537.36" etag="EqA1AElvVsJGjjvJb7FY" version="15.5.4" type="embed" pages="2"><diagram id="_bbDq67X3OEwsBBoYtsX" name="Architecture"><mxGraphModel dx="1866" dy="830" grid="1" gridSize="10" guides="1" tooltips="1" connect="1" arrows="1" fold="1" page="1" pageScale="1" pageWidth="1169" pageHeight="827" math="0" shadow="0"><root><mxCell id="0"/><mxCell id="1" parent="0"/><mxCell id="J93vkr9vUSxVD_8UCynu-1" value="AWS EKS" style="swimlane;" parent="1" vertex="1"><mxGeometry x="40" width="1300" height="890" as="geometry"/></mxCell><mxCell id="0UyYAq10a7Wnx8DwR5Ee-2" value="" style="rounded=0;whiteSpace=wrap;html=1;glass=0;sketch=0;" parent="J93vkr9vUSxVD_8UCynu-1" vertex="1"><mxGeometry x="935" y="750" width="225" height="120" as="geometry"/></mxCell><mxCell id="J93vkr9vUSxVD_8UCynu-88" style="edgeStyle=orthogonalEdgeStyle;rounded=0;orthogonalLoop=1;jettySize=auto;html=1;entryX=0;entryY=0.5;entryDx=0;entryDy=0;" parent="J93vkr9vUSxVD_8UCynu-1" source="J93vkr9vUSxVD_8UCynu-13" target="J93vkr9vUSxVD_8UCynu-49" edge="1"><mxGeometry relative="1" as="geometry"/></mxCell><mxCell id="J93vkr9vUSxVD_8UCynu-89" value="&lt;b&gt;mtls&lt;/b&gt;" style="edgeLabel;html=1;align=center;verticalAlign=middle;resizable=0;points=[];" parent="J93vkr9vUSxVD_8UCynu-88" vertex="1" connectable="0"><mxGeometry x="-0.4937" relative="1" as="geometry"><mxPoint as="offset"/></mxGeometry></mxCell><mxCell id="J93vkr9vUSxVD_8UCynu-13" value="Integration apis" style="swimlane;" parent="J93vkr9vUSxVD_8UCynu-1" vertex="1"><mxGeometry x="460" y="222.5" width="170" height="286.5" as="geometry"/></mxCell><mxCell id="J93vkr9vUSxVD_8UCynu-35" value="Theatre integration" style="rounded=1;whiteSpace=wrap;html=1;fillColor=#dae8fc;strokeColor=#6c8ebf;" parent="J93vkr9vUSxVD_8UCynu-13" vertex="1"><mxGeometry x="20" y="101" width="80" height="30" as="geometry"/></mxCell><mxCell id="J93vkr9vUSxVD_8UCynu-36" value="Payments" style="rounded=1;whiteSpace=wrap;html=1;fillColor=#dae8fc;strokeColor=#6c8ebf;" parent="J93vkr9vUSxVD_8UCynu-13" vertex="1"><mxGeometry x="20" y="50" width="70" height="30" as="geometry"/></mxCell><mxCell id="J93vkr9vUSxVD_8UCynu-72" value="Other integrations" style="rounded=1;whiteSpace=wrap;html=1;fillColor=#dae8fc;strokeColor=#6c8ebf;" parent="J93vkr9vUSxVD_8UCynu-13" vertex="1"><mxGeometry x="20" y="201" width="80" height="30" as="geometry"/></mxCell><mxCell id="J93vkr9vUSxVD_8UCynu-73" value="..." style="text;html=1;align=center;verticalAlign=middle;resizable=0;points=[];autosize=1;strokeColor=none;fillColor=none;fontStyle=1" parent="J93vkr9vUSxVD_8UCynu-13" vertex="1"><mxGeometry x="40" y="141" width="30" height="20" as="geometry"/></mxCell><mxCell id="J93vkr9vUSxVD_8UCynu-74" value="..." style="text;html=1;align=center;verticalAlign=middle;resizable=0;points=[];autosize=1;strokeColor=none;fillColor=none;fontStyle=1" parent="J93vkr9vUSxVD_8UCynu-13" vertex="1"><mxGeometry x="40" y="170.5" width="30" height="20" as="geometry"/></mxCell><mxCell id="J93vkr9vUSxVD_8UCynu-128" style="edgeStyle=orthogonalEdgeStyle;rounded=0;orthogonalLoop=1;jettySize=auto;html=1;entryX=0;entryY=0.5;entryDx=0;entryDy=0;" parent="J93vkr9vUSxVD_8UCynu-1" source="J93vkr9vUSxVD_8UCynu-50" target="J93vkr9vUSxVD_8UCynu-13" edge="1"><mxGeometry relative="1" as="geometry"/></mxCell><mxCell id="J93vkr9vUSxVD_8UCynu-50" value="Experience apis" style="swimlane;" parent="J93vkr9vUSxVD_8UCynu-1" vertex="1"><mxGeometry x="230" y="139" width="180" height="370" as="geometry"/></mxCell><mxCell id="J93vkr9vUSxVD_8UCynu-51" value="Users" style="rounded=1;whiteSpace=wrap;html=1;fillColor=#dae8fc;strokeColor=#6c8ebf;" parent="J93vkr9vUSxVD_8UCynu-50" vertex="1"><mxGeometry x="20" y="200" width="80" height="30" as="geometry"/></mxCell><mxCell id="J93vkr9vUSxVD_8UCynu-52" value="Authentication" style="rounded=1;whiteSpace=wrap;html=1;fillColor=#dae8fc;strokeColor=#6c8ebf;" parent="J93vkr9vUSxVD_8UCynu-50" vertex="1"><mxGeometry x="20" y="150" width="80" height="30" as="geometry"/></mxCell><mxCell id="J93vkr9vUSxVD_8UCynu-53" value="Theatre" style="rounded=1;whiteSpace=wrap;html=1;fillColor=#dae8fc;strokeColor=#6c8ebf;" parent="J93vkr9vUSxVD_8UCynu-50" vertex="1"><mxGeometry x="20" y="100" width="80" height="30" as="geometry"/></mxCell><mxCell id="J93vkr9vUSxVD_8UCynu-54" value="Payments" style="rounded=1;whiteSpace=wrap;html=1;fillColor=#dae8fc;strokeColor=#6c8ebf;" parent="J93vkr9vUSxVD_8UCynu-50" vertex="1"><mxGeometry x="20" y="50" width="80" height="30" as="geometry"/></mxCell><mxCell id="sOOM_90Ft2RyX1AkBDNw-3" value="Notifications" style="rounded=1;whiteSpace=wrap;html=1;fillColor=#dae8fc;strokeColor=#6c8ebf;" parent="J93vkr9vUSxVD_8UCynu-50" vertex="1"><mxGeometry x="20" y="245" width="80" height="30" as="geometry"/></mxCell><mxCell id="J93vkr9vUSxVD_8UCynu-49" value="" style="rounded=0;whiteSpace=wrap;html=1;" parent="J93vkr9vUSxVD_8UCynu-1" vertex="1"><mxGeometry x="710" y="294" width="100" height="136" as="geometry"/></mxCell><mxCell id="J93vkr9vUSxVD_8UCynu-58" value="&lt;b&gt;Integration middleware&lt;/b&gt;" style="text;html=1;strokeColor=none;fillColor=none;align=center;verticalAlign=middle;whiteSpace=wrap;rounded=0;" parent="J93vkr9vUSxVD_8UCynu-1" vertex="1"><mxGeometry x="730" y="294" width="60" height="30" as="geometry"/></mxCell><mxCell id="J93vkr9vUSxVD_8UCynu-59" value="Sync" style="rounded=0;whiteSpace=wrap;html=1;fillColor=#fff2cc;strokeColor=#d6b656;" parent="J93vkr9vUSxVD_8UCynu-1" vertex="1"><mxGeometry x="720" y="330" width="80" height="40" as="geometry"/></mxCell><mxCell id="J93vkr9vUSxVD_8UCynu-63" value="" style="edgeStyle=orthogonalEdgeStyle;rounded=0;orthogonalLoop=1;jettySize=auto;html=1;" parent="J93vkr9vUSxVD_8UCynu-1" source="J93vkr9vUSxVD_8UCynu-60" target="J93vkr9vUSxVD_8UCynu-62" edge="1"><mxGeometry relative="1" as="geometry"><Array as="points"><mxPoint x="860" y="405"/><mxPoint x="860" y="405"/></Array></mxGeometry></mxCell><mxCell id="J93vkr9vUSxVD_8UCynu-60" value="Async" style="rounded=0;whiteSpace=wrap;html=1;fillColor=#ffe6cc;strokeColor=#d79b00;" parent="J93vkr9vUSxVD_8UCynu-1" vertex="1"><mxGeometry x="720" y="385" width="80" height="40" as="geometry"/></mxCell><mxCell id="J93vkr9vUSxVD_8UCynu-83" style="edgeStyle=orthogonalEdgeStyle;rounded=0;orthogonalLoop=1;jettySize=auto;html=1;entryX=1;entryY=0.5;entryDx=0;entryDy=0;" parent="J93vkr9vUSxVD_8UCynu-1" source="J93vkr9vUSxVD_8UCynu-61" target="J93vkr9vUSxVD_8UCynu-38" edge="1"><mxGeometry relative="1" as="geometry"><Array as="points"><mxPoint x="928" y="705"/><mxPoint x="500" y="705"/><mxPoint x="500" y="769"/></Array></mxGeometry></mxCell><mxCell id="J93vkr9vUSxVD_8UCynu-61" value="Event Ingestion" style="rounded=0;whiteSpace=wrap;html=1;" parent="J93vkr9vUSxVD_8UCynu-1" vertex="1"><mxGeometry x="867.5" y="480" width="120" height="60" as="geometry"/></mxCell><mxCell id="J93vkr9vUSxVD_8UCynu-65" value="" style="edgeStyle=orthogonalEdgeStyle;rounded=0;orthogonalLoop=1;jettySize=auto;html=1;" parent="J93vkr9vUSxVD_8UCynu-1" source="J93vkr9vUSxVD_8UCynu-62" target="J93vkr9vUSxVD_8UCynu-61" edge="1"><mxGeometry relative="1" as="geometry"/></mxCell><mxCell id="J93vkr9vUSxVD_8UCynu-62" value="" style="shape=image;verticalLabelPosition=bottom;labelBackgroundColor=default;verticalAlign=top;aspect=fixed;imageAspect=0;image=data:image/png,iVBORw0KGgoAAAANSUhEUgAAAOEAAADhCAMAAAAJbSJIAAAAhFBMVEX///8AAABhYWHNzc3T09PCwsJKSkpycnL8/Pz19fXg4OC0tLTj4+Pa2tp/f3/n5+fv7++6urrGxsZoaGg4ODgnJycXFxeXl5eKiop3d3c+Pj4vLy+fn5+urq5PT0+oqKhZWVkeHh6FhYWQkJCbm5tFRUULCws6OjohISEpKSkYGBgyMjKhW/z/AAAIk0lEQVR4nO2caXuyOhCGiYJsoqitS91QW63t//9/h5CFCQFJ+2IRz9wfepUIYx5IJpNJ0LIQBEEQBEEQBEEQBEEQBEEQBEEQBEEQBEEQBEEQBEEQBEEQBEEQBEEQBEGQ/w3O6IOQz9570HZF7sQ7kbz1267MHQjmBDJruz6NMyUFrn7bVWqWqCgwldh2nRrF0wU+WUMd5bLcN/n/tO1qNUfMJZ0zTbHLD1/arldzbJiiV089JlGrtWqSDyYolgU9VrBosU7NwvSs8oIhK0naqlDT8G7ogCI2/L+2VqWGCfRex9rtubUqNcyYKYSx6DorObRWpabR/IrPSt7aq1LDsCdG8oIFKxi1V6WGOTFBrjgWUapz66JOMVQjUUeEbcpJ/SON5w6z0Cux8PD0hKZRONl8i4MTOGPylYfkxw5q9EkZ+edeon7SwRSAUyLQlp/68+JnYYt1/SVbTSAQoQnspBMqPkUwOezpAmGY3gD+n6RMYiikBwTkKZzecvQp/k+Uax2K7J2wvrVeydtkc+5k6+mGmma8fM0qf1gOYfGFa2KutS+aLEyq9hXRAR1Yx2eyo2bWtMRP797Omu7Sf4kfn8/Ai03k/aNxsZ39d8dYin2dGsoEhZ7nsdugnMUU9viRSzwa7I5PqY6Q+l2PrOL46DvfmcIxiSIZ5e9JicLB/RSG2ReslDI+4T/KAh6oz6sUxmT3Ts9KhaVOKkkf3HKXfeDQZ0MV5hcOyQMo5N0T9K2ZVqIoHI0CQhXuLzvLOVtkaK0n2QfMmfnZHeIXrh5B4UXrGmFeIw5U6JEwIpNU4XFvWd/HKHGtCxt5nG/P96lCX/pOLu7iXltUeM3KYPKUO9c8IlAULsjb5eXVytqiTT4uH8TbfGWfODR5p7RSnl1IG7U1nNnWnylUPc2L9qWTmwqzctLPdLzRuu+W1mC+Dc++Q/0qVbjZvMPrQL+8r8LgtBaN5h0Mh7wfgnGNdx5wDlBoZy4p3PvpkOG7tDVG6R3b9pK9FdHxxvX80WjEmwnrmZe/UWgPCMSVfoT70o08U4Tp4GJ1tDCHKUxALe6ncEWKbHklxLRJjvA8u+qCq/9NIbjubgr9V00gcy7jXX7MXH7MBcJu+PgKy6eHJLGWyvH1tN3I4FWJrB5e4Sf5Ocpa/6MrdGW1V6FtTxffuh6NvWLhwRXaotYyL9M/KGo+J6TIUjXx4ArFkijM6sO5Yvq44oIn2hdMPLZCkRxVN9HI1NOKDfULoC8ZF208tkLuL7eFYq5mIo69LRO9XpbsJ/qtwumfKGSOVNt5sS30TYofV2RnCgodxkTERfYxC25n9HZ5k+wzWhw4LNk+mMqzCwq5obDMkJUZkk+gGr+8Z4mHaHY7i3N8Bg+voxfZvs+O+D76wYYo6LMnEWjxNaMo30RB21Zu6Da8G2pdS/TEnysUAnm7B5vJCJ2Z5Wb3yie6QiGQ3331hrjGCqdVJy5/qVAI5O1nRFR2xgqFQJ64PVYbuo1TdeLidwqFQJ64KqiQ1CsUAif1hm7T8DMUAnlCWWaarqcwlPNPYtAPhUB+p8birFdqCERd9ZVrth8KgSKnKyYiXHD/DCs2nLJ2MuhPUxzFl67UCy0xx+GC7Tk0dJtGfakQKGZWIiCUg4x3UCpWOR7OCncq0gxdjRU2OB7OxI2X8d+qcJy3NnZUEdMkwj3JOeiocJzvVDNQeDumkcUGMY0gKBhRcndK965QKMjvDGvdMK0gluYNFNbEpTwINYlLOfmix1h7hLLMRGFeo7jEUGyssHZusTSdW2h3qtRPn00VBlqxaujLWGHt/JDoY1Hp/JAU68vmlQVn1TNVqBm6VBuq4Tdz/I1iQWml+c4jlmDeqd82M1UIvNykzJBrrrCpPI1ALh//o8J8KZ0p/Pi9wspcm9o8lVyb0mRUhXLUYv2wsP/vYq5QxiGlhj5+oLA6X+qDTHEhXwqXopnCV+GgPnkxX1xVF+lJvcK5GPG/+FrCUL1zuiEDKnPegcj2G+W8eYI8USqhDLVKpF+hcCc7zk4xpLhwxVFHk/q1/6hq3YIHN2brFiJk4U4i4Y8EoOwSrM7TiJCFO23WOJRm+pIbCs6j/dJgAwxYe9qA9sA9reHak0g8Mm/Dj8By3Um5PTcyUWIHyAQaAu1mkRuKiR+kj9DoZa2y9cOB/FLBzfVDMVFlToIfyE0AQmC9QrmiMISGZNUWwJBrW2/ht+WZbNpuYg2Yd9M5MJhGszTP5E/ykbZeoZgwnT1wV8mVGbpAQ6ljG9A/Hwb7jsoUsmdYso5foVC8YZTAamoYKBSGmLdJqg0daCXTR90z2KdVppD3Q30vRvkacB7KZ07CO5NSDBTKnTzM0KHS0MC3dk7afk023pcp5KO+tp8G2lOziWIXYObc/Ktao625Qmko8zb+WjUUSkPTnnWyTvFGmctWULYnSgwA9XuiEnEoZuhsCIXZtvWwZMRPckNMoQzPVpWGrgEwdBpE/ngFzFRRsa9NDJQ39rVFMzclD7ldBm8MQ1HRl/RheNmp3HHZheusICvIZy6rckPfNMMIDEWjnlv/pl3l3sQ8Vqzcm1hL4IThtIkNm/9gqLi/FEQIM1JCo/tL/wJ9kguiyYMusHN7hPVVXjh58DWJxbzVwxOXCIShaPf36ksBle9bOCAP0MH3LUTwUHxnRlFi83dmtt3TJ+cD2ntPBgusHYG3wLxgUZDcdfikXX//8GleVw90B6m9kdhtKt8DfhqFPFcHQ1cWXs8rL+kaTKH+Pv4dd5T/MTwxp/2mgsmUshvwwUH7XQz75lVdouK3TdZt16tB8pz+k/4+TflvDP18q+EjY+sCP+uv6hTab319PtlvfdH1G0XgU/0MluDZf3OP8uy/m4ggCIIgCIIgCIIgCIIgCIIgCIIgCIIgCIIgCIIgCIIgCIIgCIIgCIIgCIJ0mP8AvdRk0Zd6tPcAAAAASUVORK5CYII=;" parent="J93vkr9vUSxVD_8UCynu-1" vertex="1"><mxGeometry x="880" y="350" width="95" height="95" as="geometry"/></mxCell><mxCell id="J93vkr9vUSxVD_8UCynu-85" style="edgeStyle=orthogonalEdgeStyle;rounded=0;orthogonalLoop=1;jettySize=auto;html=1;entryX=1;entryY=0.5;entryDx=0;entryDy=0;" parent="J93vkr9vUSxVD_8UCynu-1" source="J93vkr9vUSxVD_8UCynu-71" target="J93vkr9vUSxVD_8UCynu-75" edge="1"><mxGeometry relative="1" as="geometry"/></mxCell><mxCell id="J93vkr9vUSxVD_8UCynu-71" value="Istio Ingress Gateway" style="rounded=0;whiteSpace=wrap;html=1;glass=0;sketch=0;direction=north;flipV=0;flipH=1;rotation=270;" parent="J93vkr9vUSxVD_8UCynu-1" vertex="1"><mxGeometry x="-75" y="324" width="280" height="40" as="geometry"/></mxCell><mxCell id="J93vkr9vUSxVD_8UCynu-75" value="Microservices API Gateway" style="rounded=0;whiteSpace=wrap;html=1;glass=0;sketch=0;direction=north;flipV=0;flipH=1;rotation=270;" parent="J93vkr9vUSxVD_8UCynu-1" vertex="1"><mxGeometry y="315" width="280" height="40" as="geometry"/></mxCell><mxCell id="J93vkr9vUSxVD_8UCynu-76" value="&lt;b&gt;SCG&lt;/b&gt;" style="rounded=0;whiteSpace=wrap;html=1;glass=0;sketch=0;direction=north;flipV=0;flipH=1;rotation=270;" parent="J93vkr9vUSxVD_8UCynu-1" vertex="1"><mxGeometry x="115" y="150" width="50" height="40" as="geometry"/></mxCell><mxCell id="J93vkr9vUSxVD_8UCynu-82" value="" style="group" parent="J93vkr9vUSxVD_8UCynu-1" vertex="1" connectable="0"><mxGeometry x="10" y="670" width="570" height="210" as="geometry"/></mxCell><mxCell id="J93vkr9vUSxVD_8UCynu-39" value="&lt;b&gt;Data stores&lt;/b&gt;" style="text;html=1;align=center;verticalAlign=middle;resizable=0;points=[];autosize=1;strokeColor=none;fillColor=none;" parent="J93vkr9vUSxVD_8UCynu-82" vertex="1"><mxGeometry x="35" y="10" width="80" height="20" as="geometry"/></mxCell><mxCell id="J93vkr9vUSxVD_8UCynu-81" value="" style="group" parent="J93vkr9vUSxVD_8UCynu-82" vertex="1" connectable="0"><mxGeometry x="6.627285513361462" y="39.375" width="563.3727144866385" height="170.625" as="geometry"/></mxCell><mxCell id="J93vkr9vUSxVD_8UCynu-38" value="" style="rounded=0;whiteSpace=wrap;html=1;" parent="J93vkr9vUSxVD_8UCynu-81" vertex="1"><mxGeometry width="340" height="120" as="geometry"/></mxCell><mxCell id="J93vkr9vUSxVD_8UCynu-11" value="&lt;b&gt;Managed Kafka&lt;/b&gt;" style="sketch=0;points=[[0,0,0],[0.25,0,0],[0.5,0,0],[0.75,0,0],[1,0,0],[0,1,0],[0.25,1,0],[0.5,1,0],[0.75,1,0],[1,1,0],[0,0.25,0],[0,0.5,0],[0,0.75,0],[1,0.25,0],[1,0.5,0],[1,0.75,0]];outlineConnect=0;fontColor=#232F3E;gradientColor=#945DF2;gradientDirection=north;fillColor=#5A30B5;strokeColor=#ffffff;dashed=0;verticalLabelPosition=bottom;verticalAlign=top;align=center;html=1;fontSize=12;fontStyle=0;aspect=fixed;shape=mxgraph.aws4.resourceIcon;resIcon=mxgraph.aws4.managed_streaming_for_kafka;" parent="J93vkr9vUSxVD_8UCynu-81" vertex="1"><mxGeometry x="223.37262986006817" y="9.8375" width="73.54180790960451" height="73.54180790960451" as="geometry"/></mxCell><mxCell id="J93vkr9vUSxVD_8UCynu-41" value="Amazon RDS" style="sketch=0;outlineConnect=0;fontColor=#232F3E;gradientColor=none;strokeColor=#ffffff;fillColor=#232F3E;dashed=0;verticalLabelPosition=middle;verticalAlign=bottom;align=center;html=1;whiteSpace=wrap;fontSize=10;fontStyle=1;spacing=3;shape=mxgraph.aws4.productIcon;prIcon=mxgraph.aws4.rds;" parent="J93vkr9vUSxVD_8UCynu-81" vertex="1"><mxGeometry x="13.36888888888889" y="9.840000000000002" width="78.56711111111112" height="120.31" as="geometry"/></mxCell><mxCell id="J93vkr9vUSxVD_8UCynu-42" value="&lt;b&gt;Redis&lt;/b&gt;" style="sketch=0;outlineConnect=0;fontColor=#232F3E;gradientColor=none;fillColor=#2E27AD;strokeColor=none;dashed=0;verticalLabelPosition=bottom;verticalAlign=top;align=center;html=1;fontSize=12;fontStyle=0;aspect=fixed;pointerEvents=1;shape=mxgraph.aws4.elasticache_for_redis;" parent="J93vkr9vUSxVD_8UCynu-81" vertex="1"><mxGeometry x="113.3705569620253" y="9.837500000000002" width="73.54180790960451" height="65.05621468926554" as="geometry"/></mxCell><mxCell id="J93vkr9vUSxVD_8UCynu-90" value="" style="shape=image;verticalLabelPosition=bottom;labelBackgroundColor=default;verticalAlign=top;aspect=fixed;imageAspect=0;image=https://e4developer.com/wp-content/uploads/2018/01/spring-boot.png;" parent="J93vkr9vUSxVD_8UCynu-1" vertex="1"><mxGeometry x="330" y="99" width="76.19" height="40" as="geometry"/></mxCell><mxCell id="J93vkr9vUSxVD_8UCynu-91" value="" style="shape=image;verticalLabelPosition=bottom;labelBackgroundColor=default;verticalAlign=top;aspect=fixed;imageAspect=0;image=https://e4developer.com/wp-content/uploads/2018/01/spring-boot.png;" parent="J93vkr9vUSxVD_8UCynu-1" vertex="1"><mxGeometry x="459.99999999999994" y="180" width="76.19" height="40" as="geometry"/></mxCell><mxCell id="J93vkr9vUSxVD_8UCynu-93" value="" style="group" parent="J93vkr9vUSxVD_8UCynu-1" vertex="1" connectable="0"><mxGeometry x="740" y="30" width="555.8227848101266" height="160" as="geometry"/></mxCell><mxCell id="J93vkr9vUSxVD_8UCynu-94" value="&lt;b&gt;Observability Stack&lt;/b&gt;" style="text;html=1;align=center;verticalAlign=middle;resizable=0;points=[];autosize=1;strokeColor=none;fillColor=none;" parent="J93vkr9vUSxVD_8UCynu-93" vertex="1"><mxGeometry x="11.645569620253164" width="130" height="20" as="geometry"/></mxCell><mxCell id="J93vkr9vUSxVD_8UCynu-95" value="" style="group" parent="J93vkr9vUSxVD_8UCynu-93" vertex="1" connectable="0"><mxGeometry x="5.822784810126582" y="30" width="550" height="130" as="geometry"/></mxCell><mxCell id="J93vkr9vUSxVD_8UCynu-96" value="" style="rounded=0;whiteSpace=wrap;html=1;" parent="J93vkr9vUSxVD_8UCynu-95" vertex="1"><mxGeometry width="550" height="130" as="geometry"/></mxCell><mxCell id="J93vkr9vUSxVD_8UCynu-102" value="Amazon Elasticsearch Service" style="sketch=0;outlineConnect=0;fontColor=#232F3E;gradientColor=none;strokeColor=#ffffff;fillColor=#232F3E;dashed=0;verticalLabelPosition=middle;verticalAlign=bottom;align=center;html=1;whiteSpace=wrap;fontSize=10;fontStyle=1;spacing=3;shape=mxgraph.aws4.productIcon;prIcon=mxgraph.aws4.elasticsearch_service;glass=0;" parent="J93vkr9vUSxVD_8UCynu-95" vertex="1"><mxGeometry x="17.468354430379748" y="10" width="93.16455696202532" height="120" as="geometry"/></mxCell><mxCell id="J93vkr9vUSxVD_8UCynu-103" value="" style="shape=image;verticalLabelPosition=bottom;labelBackgroundColor=default;verticalAlign=top;aspect=fixed;imageAspect=0;image=https://raw.githubusercontent.com/docker-library/docs/23d5a64f3f38c1cad2557ded3d3d16388d9239cb/fluentd/logo.png;" parent="J93vkr9vUSxVD_8UCynu-95" vertex="1"><mxGeometry x="133.9240506329114" y="10" width="78.45" height="70" as="geometry"/></mxCell><mxCell id="J93vkr9vUSxVD_8UCynu-104" value="" style="shape=image;verticalLabelPosition=bottom;labelBackgroundColor=default;verticalAlign=top;aspect=fixed;imageAspect=0;image=data:image/png,iVBORw0KGgoAAAANSUhEUgAAAOEAAADhCAMAAAAJbSJIAAAA7VBMVEX///80N0HwTpgAv7MAu673q8nvRJTw+vovMj0ZHixZW2IdIS8nKzeam5/wSpZ/gIX19vbybKcSGCjj5OXu7+/V1tckKDQgJDG6u72PkJQ4O0WsrbAsLzoPFSYWGypMTlbe3+DvOpBrbXPNzc/0iLb71uUrNj4ZNTm36OSMjZFgz8d2eH1FSFC/wMJhY2oAABvxWJ3+8vf6zN/zfLD2o8bSSolLOUqwRXiF2dI1xrzR8O6m494AABGjpKdUVl34ttH1lr/84eyOX3h5O12JQGWeQm+3RntyPVvaS41WOk/FX45/19Dg9fNQzMIAABQmUmrfAAALLUlEQVR4nO2da5uiOBaApaq2GgSrbERARaRkd6sdLWsvU32bsWZ2u7pnd6dn/v/PWS5JyAmEm/gQe/J+UwPkNSHnHHyEwUAikUgkEomkBj/96XR8//e+7WJeX5+Mu+/7lkt4fXNxIq7/3LdbyskMr1/3rYY4leHN3/o2w5zI8OZaiFUm5kSGd//qW4xwGsO7f/TtlXESw7uf+taiOIXh9c99W9GcwPD6n31LAbo3vBElECI6N7y5ECZOpHRueC1OnEjp2vDuL30bsXRsKFScSOnWUJCCCdCpoSgFE6BLQ2EKJkCHhuIUTIDuDAUqmADdGQpUMAE6MxSpYAJ0ZShgIER0ZChWwQToxlCwggnQiaGgcSKlC8Obi74tyujC8E7MQIjowFC8gglwvKG4cSLlaEMRCybAsYZCFkyAIw3FLJgAxxkKHQgRRxmKWjABjjIUtWACHGMobMEEOMJQ9ECIaG8ocMEEaG0ocsEEaGso2i9MfFoaCvcLE5+WhucQCBGvbxIaCgpeMAH+/enTy8vnd1+enqKpV9f0TOJEyvCvKff398rbX16+PF1UawpfMAGGqpKRmL59efef0tEUv2ACAEPsea/8EltyBM8mTqQUGCLLt5+fiiTPoWACcAwTy/v5S24kb27OJ06klBgmkm8/XwDHsyiYAOWGieSnp8zxPAomQKVh7PjfL2iynlUgRNQwjB2Vd7HjuRRMgFqGEffzdzdnUzAB6hpGjur/+u5sK+obqsq47862or6hPum7r+2obbic9t3VltQ1NN2+e9qWmob6qO+Otqaeob2FW33tp7OtqGVo7OFG769+6Ke3bahjqM7hNm+uLq++66e7LahhqBoW2OTj1eXl5dXlq5563JQahloAtngVC8aOH/vpcVOqDZch3OIScyYnY6Whv4AbfLjMFH/tp8/NqDJ0NrD9d1eXlOI5rDcVhsYaNn9PC0aKv/XT6yaUG3or2PoHKBgpfuin2w0oNVTnsGD6yApGCK9YaujAgulrgaD4imWGJiyYXhX5ia9YYsgWTB84hoIvN3xDtmD6rXCOih80uIb2LWz4K1cwUnzfT+drwTP0mIIpFyegosAJHMdQ3cFmb0oFhU7DOYZOQcFUjrDFVLEhp2AqQ9iYUWjILZjK5qmohUaRYUnBVKb4ph+DKgoMSwumMkUxT8W8YUXBVIKYuU3OsLJgKhlEIaMia8j+wlQjTgg+T1nDWgUTFxFDBmO4rFcwcQdRwPUUGtYtmPiK/ViUAQzrF0xcQ/HiPm3YpGDiKgr3sxRlaAzhRw3iBIVwQTEzbFow8QZRtDqKGKpe44KpGNEiBjE0A/B+nYKJM4iCRQxsaLYomHj0Y8IDGbYrmM5iEFPDtgVTMWKdiYlh+4KpeBCFWk5jwyMKpmKEukIcGR5VMBUPokiJTWSoH1UwFRqKdA18qPrHFUzF9GRTxHB5bMFUhEgBY3V0wVSIQPk3I9imYCpCyCs2MUcGQspQyMturQumIgSaphTHB8IMIadpN3ECGwq0mhK6FBQsc0vpJBBS9O2T47iCKY9YBcagwzhBDEXKTQcdFEx5xIoXXcYJjFAX+DsomAoMBToRv16dBIESt1cnom8viUQikUgkEolEIpFIJBKJRCKRSCQSiUQikUgkEskfnO1SS/gx98kMfaIt038AWT+ilujfJOPf09e/h7lNheLWQ38mZD9Y+PieEOivsJaWvtawIXqtC37HZ55huMR/hVXRX5xyhvpZGwY6/jczFvrGDMce+a8v6f+3ZbjDgssH8t43Zbj38BQ9ZG9apppgfgOGtzYSBP/1tearhPn5G47wKsP+1xdyvoYujhPec+mWZ2s4xZGeva06y7kaTjQsyNz0IseZGo4VHCf8oGLLMzV8xnGCvelFHsZwPHVdNyx77Mo4eIibBBX7tcKo1ZT/gJog/vyhpAEDNFwbWDD/fJHxYZFwQLMXGIZrTXNsx/HV2+IhDUYrX3fiJpq+X4DuWWjH0+QgO1OPWun+/qFgL+PF3omOE+1FN3ezek+xAYYbB0f6gueLWI92wmM+HlpDDY+94vnDIO839I3szkSq41CZxGCa7ngZvec6Nrn5jfbMLgTjjW9TezHMbZ2BpA1JwcTe/Sk15GZtE4f4JYdeHphNR0v2Nn06dfulabojezG49cF+HPhVhYbB7MWza6wBlCEpmIojPc/QCVW2/xr8hta6ksPIgi02dG8d2EY16DFaLPN7UZbVMzUzDEjJuypsyTNUdgX3wqQVt07uc4WeJ8hQfWaHSPGoZ9U8FAlWBm3KULNwwcTeN77SEG2m0kPpZyuVS1IIWzNNjWiQezAhQxSn4G5wG+pohu6bvoMb2ZVPJMKG2UjwIn2poaHt9vudbpM3fLIXrGTs3MlgPBnhxcLDgzjV4X6GHhl0g6T+WwN/TaNgPLDcHd6tU9sQY/OeQ1ViqOppCLEWBt4d6f9haXjxsJBZaeEmuG+UoTlL9uMSRTwJJ4/pXtQd/ubWaDd6VeDOGSpq4zHMDjsYk5QBD6I72myHO8XJTu4QbahNWUOSHgU4dzTRXqajze1+Nfces86hQTSqpikxJOcHe5u5akNwOx48220YMugmeAxdxlDLgvzGYJzzu9mkPVdLSzzK0Jhlk39f2JJrqIF5MjHLv6iIdfolGAdoqFLHxe85RZlNCprKJceBhmaWseVu41VuqDJl5NaD0zQPamHMSmzQAsxdFaLwgYakKl5QET+La9qioCXP0GYa49OMWQLG0wd3sXBDi2uo0dEbz3XWMEj28hA1DZsbjrO1nr3/eJmhxqQVYydvHszmyyihjtB9dbNXCw1N+lydFxhai6EZ591x+u6vZ15jw8HUJIpOPhviZm1sgoDmQrbIBUOTyrsVnFo0NQR5d1ShK80NBy5RLHiCKHelYRs+wyGKEsriRw00Mwy8XFLXwnCQLajekG1Z23AIDQ+mUkwjw0DjPTekmSG1oLJPaOSvNOwu4SydkozZczRN021yhEaG5OqKauvRbpxs2jc0pBZUnany6q40A7RgoZVmhRN6ZxNOrMnU3XgkBNc3HOFV0F+7U8sKwtEKT7emhla2oJow2nJXGmZBJ+EtWY/xxUl1mPWfEy3KDEkpkeU4rt3OMLteyl5u40Z8JgW6BRH/gNNHqvsjo6khzlPppAD/ANjYkF5QQY3NXWngzXYtsnnyEo0XXcu2MMT5C33OT1sbUgsqyPm4hjAz3MNoh156dNG/bhzx8YxUqRZu85wm60G23FGJO7+2oB+DtMbnMRpZZEN/C/g8aGFIr2p4TWxjSC2ozoy8WVI9eXN0foSk9MZnJ6pxFIfkcDhvbWIY5s5567lVTkM2p65GkJ6VXcVQHXU9m20VnXw1+OTEZ5Cib+LtxuGarGQNDMf45DaGyQodzJzW8RAdNMtDyMMduGspGkfPoC4XZAVYliVp9lzVqEurTaIFLskUVdfnc12nMrh2htkFsuxJVRxDdTtXclA/PR7y1xJbZN6T/LVEPIgtDekFdV5q6M3C3NEN+opr7jKo3Xwtjb4ojdmLt54fZ0gtqCgJ5xlucsWDBi+drGzw6XI0dZobDmYwgbdXg5pr6VY3Eh5zn+wcA2Em4dp6RC2x4TJ5GV/BD5XsxFcdg63LN0uP+vRhEKIt0bk6XaId04aenbxH3dCX+tVGMZbRtnrSxPYqDN1Ryiz3iTUizILYaIZe4F/X0OskUCyefcc24hL+ueAKyGSj+vFvYujTCb1l9hJ0AR+avtZ2WPl6XOH786QPuEmFYWdY4eJwWIS8y0+Th8Wi7HfPugdxF4vSn2ElEolEIpH8Mfg/F4QuNDcZJS0AAAAASUVORK5CYII=;" parent="J93vkr9vUSxVD_8UCynu-95" vertex="1"><mxGeometry x="238.73417721518987" y="10" width="70" height="70" as="geometry"/></mxCell><mxCell id="J93vkr9vUSxVD_8UCynu-105" value="" style="shape=image;verticalLabelPosition=bottom;labelBackgroundColor=default;verticalAlign=top;aspect=fixed;imageAspect=0;image=https://upload.wikimedia.org/wikipedia/en/thumb/a/a1/Grafana_logo.svg/1200px-Grafana_logo.svg.png;" parent="J93vkr9vUSxVD_8UCynu-95" vertex="1"><mxGeometry x="320.253164556962" y="10" width="68.65" height="70" as="geometry"/></mxCell><mxCell id="J93vkr9vUSxVD_8UCynu-106" value="" style="shape=image;verticalLabelPosition=bottom;labelBackgroundColor=default;verticalAlign=top;aspect=fixed;imageAspect=0;image=https://www.vectorlogo.zone/logos/jaegertracingio/jaegertracingio-ar21.png;" parent="J93vkr9vUSxVD_8UCynu-95" vertex="1"><mxGeometry x="404.18" y="15" width="120" height="60" as="geometry"/></mxCell><mxCell id="sOOM_90Ft2RyX1AkBDNw-2" value="" style="shape=image;verticalLabelPosition=bottom;labelBackgroundColor=default;verticalAlign=top;aspect=fixed;imageAspect=0;image=https://i.ytimg.com/vi/-bquzaZpeVU/hqdefault.jpg;" parent="J93vkr9vUSxVD_8UCynu-95" vertex="1"><mxGeometry x="474.17721518987344" y="70" width="60" height="45" as="geometry"/></mxCell><mxCell id="J93vkr9vUSxVD_8UCynu-126" value="" style="group" parent="J93vkr9vUSxVD_8UCynu-1" vertex="1" connectable="0"><mxGeometry x="664" y="200" width="636" height="40" as="geometry"/></mxCell><mxCell id="J93vkr9vUSxVD_8UCynu-124" value="" style="group" parent="J93vkr9vUSxVD_8UCynu-126" vertex="1" connectable="0"><mxGeometry width="580" height="40" as="geometry"/></mxCell><mxCell id="J93vkr9vUSxVD_8UCynu-118" value="CircuitBreaker" style="rounded=1;whiteSpace=wrap;html=1;glass=0;sketch=0;dashed=1;" parent="J93vkr9vUSxVD_8UCynu-124" vertex="1"><mxGeometry width="80" height="40" as="geometry"/></mxCell><mxCell id="J93vkr9vUSxVD_8UCynu-119" value="Retries" style="rounded=1;whiteSpace=wrap;html=1;glass=0;sketch=0;dashed=1;" parent="J93vkr9vUSxVD_8UCynu-124" vertex="1"><mxGeometry x="100" width="80" height="40" as="geometry"/></mxCell><mxCell id="J93vkr9vUSxVD_8UCynu-120" value="mtls" style="rounded=1;whiteSpace=wrap;html=1;glass=0;sketch=0;dashed=1;" parent="J93vkr9vUSxVD_8UCynu-124" vertex="1"><mxGeometry x="200" width="80" height="40" as="geometry"/></mxCell><mxCell id="J93vkr9vUSxVD_8UCynu-121" value="service discovery" style="rounded=1;whiteSpace=wrap;html=1;glass=0;sketch=0;dashed=1;" parent="J93vkr9vUSxVD_8UCynu-124" vertex="1"><mxGeometry x="300" width="80" height="40" as="geometry"/></mxCell><mxCell id="J93vkr9vUSxVD_8UCynu-122" value="traffic control" style="rounded=1;whiteSpace=wrap;html=1;glass=0;sketch=0;dashed=1;" parent="J93vkr9vUSxVD_8UCynu-124" vertex="1"><mxGeometry x="400" width="80" height="40" as="geometry"/></mxCell><mxCell id="J93vkr9vUSxVD_8UCynu-123" value="A/B testing" style="rounded=1;whiteSpace=wrap;html=1;glass=0;sketch=0;dashed=1;" parent="J93vkr9vUSxVD_8UCynu-124" vertex="1"><mxGeometry x="500" width="80" height="40" as="geometry"/></mxCell><mxCell id="J93vkr9vUSxVD_8UCynu-125" value="Istio" style="editableCssRules=.*;shape=image;verticalLabelPosition=bottom;labelBackgroundColor=#ffffff;verticalAlign=top;aspect=fixed;imageAspect=0;image=data:image/svg+xml,PHN2ZyB4bWxucz0iaHR0cDovL3d3dy53My5vcmcvMjAwMC9zdmciIHhtbG5zOnY9Imh0dHBzOi8vdmVjdGEuaW8vbmFubyIgd2lkdGg9IjE2MCIgaGVpZ2h0PSIyNDAiIHZpZXdCb3g9IjAgMCAxNjAgMjQwIj4mI3hhOwk8c3R5bGUgdHlwZT0idGV4dC9jc3MiPiYjeGE7CS5zdDB7ZmlsbDojNDY2YmIwO30mI3hhOwk8L3N0eWxlPiYjeGE7CTxwYXRoIGNsYXNzPSJzdDAiIGQ9Ik02MCAyNDBMMCAyMTBoMTYwem0wLTE2MEwwIDIwMGw2MC0xMHpNNzAgMHYxOTBsOTAgMTB6Ii8+JiN4YTs8L3N2Zz4=;fontColor=default;glass=0;dashed=1;sketch=0;fontStyle=1" parent="J93vkr9vUSxVD_8UCynu-126" vertex="1"><mxGeometry x="610" width="26" height="40" as="geometry"/></mxCell><mxCell id="0UyYAq10a7Wnx8DwR5Ee-1" value="Amazon Cognito" style="sketch=0;outlineConnect=0;fontColor=#232F3E;gradientColor=none;strokeColor=#ffffff;fillColor=#232F3E;dashed=0;verticalLabelPosition=middle;verticalAlign=bottom;align=center;html=1;whiteSpace=wrap;fontSize=10;fontStyle=1;spacing=3;shape=mxgraph.aws4.productIcon;prIcon=mxgraph.aws4.cognito;glass=0;" parent="J93vkr9vUSxVD_8UCynu-1" vertex="1"><mxGeometry x="950" y="755" width="80" height="110" as="geometry"/></mxCell><mxCell id="0UyYAq10a7Wnx8DwR5Ee-3" value="Identity Access and management" style="text;html=1;align=center;verticalAlign=middle;resizable=0;points=[];autosize=1;strokeColor=none;fillColor=none;fontStyle=1" parent="J93vkr9vUSxVD_8UCynu-1" vertex="1"><mxGeometry x="925" y="720" width="210" height="20" as="geometry"/></mxCell><mxCell id="0UyYAq10a7Wnx8DwR5Ee-4" value="" style="shape=image;verticalLabelPosition=bottom;labelBackgroundColor=default;verticalAlign=top;aspect=fixed;imageAspect=0;image=https://1000logos.net/wp-content/uploads/2016/11/New-Google-Logo.jpg;" parent="J93vkr9vUSxVD_8UCynu-1" vertex="1"><mxGeometry x="1047.76" y="760" width="89.48" height="90" as="geometry"/></mxCell><mxCell id="sOOM_90Ft2RyX1AkBDNw-7" value="" style="group" parent="J93vkr9vUSxVD_8UCynu-1" vertex="1" connectable="0"><mxGeometry x="520" y="735" width="310" height="125" as="geometry"/></mxCell><mxCell id="sOOM_90Ft2RyX1AkBDNw-5" value="" style="rounded=0;whiteSpace=wrap;html=1;glass=0;sketch=0;" parent="sOOM_90Ft2RyX1AkBDNw-7" vertex="1"><mxGeometry y="14.96348908662862" width="310.00000000000006" height="109.7322533019432" as="geometry"/></mxCell><mxCell id="sOOM_90Ft2RyX1AkBDNw-1" value="Strapi CMS" style="shape=image;verticalLabelPosition=bottom;labelBackgroundColor=default;verticalAlign=top;aspect=fixed;imageAspect=0;image=https://res.cloudinary.com/practicaldev/image/fetch/s--XsZRGi5O--/c_fill,f_auto,fl_progressive,h_320,q_auto,w_320/https://dev-to-uploads.s3.amazonaws.com/uploads/organization/profile_image/763/988af53b-5d7e-435a-98eb-dd4aff5299d2.png;fontStyle=1" parent="sOOM_90Ft2RyX1AkBDNw-7" vertex="1"><mxGeometry x="17.429528363806863" y="24.944136307409902" width="76.08457585713079" height="76.08457585713079" as="geometry"/></mxCell><mxCell id="J93vkr9vUSxVD_8UCynu-40" value="Amazon S3" style="sketch=0;outlineConnect=0;fontColor=#232F3E;gradientColor=none;strokeColor=#ffffff;fillColor=#232F3E;dashed=0;verticalLabelPosition=middle;verticalAlign=bottom;align=center;html=1;whiteSpace=wrap;fontSize=10;fontStyle=1;spacing=3;shape=mxgraph.aws4.productIcon;prIcon=mxgraph.aws4.s3;" parent="sOOM_90Ft2RyX1AkBDNw-7" vertex="1"><mxGeometry x="103.32823206751054" y="14.958501256933081" width="82.28548148148148" height="110.04149874306687" as="geometry"/></mxCell><mxCell id="sOOM_90Ft2RyX1AkBDNw-8" value="Amazon Cloudfront" style="sketch=0;outlineConnect=0;fontColor=#232F3E;gradientColor=none;strokeColor=#ffffff;fillColor=#232F3E;dashed=0;verticalLabelPosition=middle;verticalAlign=bottom;align=center;html=1;whiteSpace=wrap;fontSize=10;fontStyle=1;spacing=3;shape=mxgraph.aws4.productIcon;prIcon=mxgraph.aws4.cloudfront;glass=0;" parent="sOOM_90Ft2RyX1AkBDNw-7" vertex="1"><mxGeometry x="217.00000000000003" y="14.96348908662862" width="82.66666666666667" height="109.7322533019432" as="geometry"/></mxCell><mxCell id="sOOM_90Ft2RyX1AkBDNw-6" value="&lt;b&gt;Content store/ Delivery&lt;/b&gt;" style="text;html=1;align=center;verticalAlign=middle;resizable=0;points=[];autosize=1;strokeColor=none;fillColor=none;" parent="J93vkr9vUSxVD_8UCynu-1" vertex="1"><mxGeometry x="514.0011111111111" y="730" width="150" height="20" as="geometry"/></mxCell><mxCell id="J93vkr9vUSxVD_8UCynu-67" style="edgeStyle=orthogonalEdgeStyle;rounded=0;orthogonalLoop=1;jettySize=auto;html=1;entryX=1;entryY=0.5;entryDx=0;entryDy=0;dashed=1;" parent="1" source="J93vkr9vUSxVD_8UCynu-8" target="J93vkr9vUSxVD_8UCynu-62" edge="1"><mxGeometry relative="1" as="geometry"/></mxCell><mxCell id="J93vkr9vUSxVD_8UCynu-131" value="via theatre integration service" style="edgeLabel;html=1;align=center;verticalAlign=middle;resizable=0;points=[];" parent="J93vkr9vUSxVD_8UCynu-67" vertex="1" connectable="0"><mxGeometry x="-0.3052" y="-2" relative="1" as="geometry"><mxPoint as="offset"/></mxGeometry></mxCell><mxCell id="J93vkr9vUSxVD_8UCynu-8" value="Theatre integrations" style="swimlane;" parent="1" vertex="1"><mxGeometry x="1430" y="100" width="235" height="360" as="geometry"/></mxCell><mxCell id="J93vkr9vUSxVD_8UCynu-10" value="" style="group" parent="J93vkr9vUSxVD_8UCynu-8" vertex="1" connectable="0"><mxGeometry x="55" y="50" width="120" height="270" as="geometry"/></mxCell><mxCell id="J93vkr9vUSxVD_8UCynu-3" value="Theatre 1" style="rounded=0;whiteSpace=wrap;html=1;fillColor=#fff2cc;strokeColor=#d6b656;" parent="J93vkr9vUSxVD_8UCynu-10" vertex="1"><mxGeometry width="120" height="60" as="geometry"/></mxCell><mxCell id="J93vkr9vUSxVD_8UCynu-4" value="&lt;span&gt;Theatre 2&lt;/span&gt;" style="rounded=0;whiteSpace=wrap;html=1;fillColor=#fff2cc;strokeColor=#d6b656;" parent="J93vkr9vUSxVD_8UCynu-10" vertex="1"><mxGeometry y="80" width="120" height="60" as="geometry"/></mxCell><mxCell id="J93vkr9vUSxVD_8UCynu-5" value="Theatre 1" style="rounded=0;whiteSpace=wrap;html=1;fillColor=#fff2cc;strokeColor=#d6b656;" parent="J93vkr9vUSxVD_8UCynu-10" vertex="1"><mxGeometry y="210" width="120" height="60" as="geometry"/></mxCell><mxCell id="J93vkr9vUSxVD_8UCynu-9" value="" style="group" parent="J93vkr9vUSxVD_8UCynu-10" vertex="1" connectable="0"><mxGeometry x="45" y="150" width="30" height="50" as="geometry"/></mxCell><mxCell id="J93vkr9vUSxVD_8UCynu-6" value="..." style="text;html=1;align=center;verticalAlign=middle;resizable=0;points=[];autosize=1;strokeColor=none;fillColor=none;fontStyle=1" parent="J93vkr9vUSxVD_8UCynu-9" vertex="1"><mxGeometry width="30" height="20" as="geometry"/></mxCell><mxCell id="J93vkr9vUSxVD_8UCynu-7" value="..." style="text;html=1;align=center;verticalAlign=middle;resizable=0;points=[];autosize=1;strokeColor=none;fillColor=none;fontStyle=1" parent="J93vkr9vUSxVD_8UCynu-9" vertex="1"><mxGeometry y="30" width="30" height="20" as="geometry"/></mxCell><mxCell id="J93vkr9vUSxVD_8UCynu-17" value="Payment integrations" style="swimlane;" parent="1" vertex="1"><mxGeometry x="1430" y="500" width="235" height="360" as="geometry"/></mxCell><mxCell id="J93vkr9vUSxVD_8UCynu-18" value="" style="group" parent="J93vkr9vUSxVD_8UCynu-17" vertex="1" connectable="0"><mxGeometry x="55" y="50" width="120" height="270" as="geometry"/></mxCell><mxCell id="J93vkr9vUSxVD_8UCynu-19" value="RazorPay" style="rounded=0;whiteSpace=wrap;html=1;fillColor=#ffe6cc;strokeColor=#d79b00;" parent="J93vkr9vUSxVD_8UCynu-18" vertex="1"><mxGeometry width="120" height="60" as="geometry"/></mxCell><mxCell id="J93vkr9vUSxVD_8UCynu-20" value="&lt;span&gt;NPCI&lt;/span&gt;" style="rounded=0;whiteSpace=wrap;html=1;fillColor=#ffe6cc;strokeColor=#d79b00;" parent="J93vkr9vUSxVD_8UCynu-18" vertex="1"><mxGeometry y="80" width="120" height="60" as="geometry"/></mxCell><mxCell id="J93vkr9vUSxVD_8UCynu-21" value="Payment Integration" style="rounded=0;whiteSpace=wrap;html=1;fillColor=#ffe6cc;strokeColor=#d79b00;" parent="J93vkr9vUSxVD_8UCynu-18" vertex="1"><mxGeometry y="210" width="120" height="60" as="geometry"/></mxCell><mxCell id="J93vkr9vUSxVD_8UCynu-22" value="" style="group" parent="J93vkr9vUSxVD_8UCynu-18" vertex="1" connectable="0"><mxGeometry x="45" y="150" width="30" height="50" as="geometry"/></mxCell><mxCell id="J93vkr9vUSxVD_8UCynu-23" value="..." style="text;html=1;align=center;verticalAlign=middle;resizable=0;points=[];autosize=1;strokeColor=none;fillColor=none;fontStyle=1" parent="J93vkr9vUSxVD_8UCynu-22" vertex="1"><mxGeometry width="30" height="20" as="geometry"/></mxCell><mxCell id="J93vkr9vUSxVD_8UCynu-24" value="..." style="text;html=1;align=center;verticalAlign=middle;resizable=0;points=[];autosize=1;strokeColor=none;fillColor=none;fontStyle=1" parent="J93vkr9vUSxVD_8UCynu-22" vertex="1"><mxGeometry y="30" width="30" height="20" as="geometry"/></mxCell><mxCell id="J93vkr9vUSxVD_8UCynu-68" style="edgeStyle=orthogonalEdgeStyle;rounded=0;orthogonalLoop=1;jettySize=auto;html=1;entryX=0;entryY=0.5;entryDx=0;entryDy=0;" parent="1" source="J93vkr9vUSxVD_8UCynu-59" target="J93vkr9vUSxVD_8UCynu-17" edge="1"><mxGeometry relative="1" as="geometry"><Array as="points"><mxPoint x="1140" y="350"/><mxPoint x="1140" y="680"/><mxPoint x="1415" y="680"/></Array></mxGeometry></mxCell><mxCell id="J93vkr9vUSxVD_8UCynu-69" value="REST endpoints&lt;br&gt;" style="edgeLabel;html=1;align=center;verticalAlign=middle;resizable=0;points=[];fontStyle=1" parent="J93vkr9vUSxVD_8UCynu-68" vertex="1" connectable="0"><mxGeometry x="-0.8566" y="2" relative="1" as="geometry"><mxPoint x="72" y="2" as="offset"/></mxGeometry></mxCell><mxCell id="J93vkr9vUSxVD_8UCynu-70" value="Platform consumers" style="swimlane;" parent="1" vertex="1"><mxGeometry x="-380" y="250" width="210" height="390" as="geometry"/></mxCell><mxCell id="J93vkr9vUSxVD_8UCynu-25" value="&lt;b&gt;Mobile&lt;/b&gt;" style="html=1;verticalLabelPosition=bottom;align=center;labelBackgroundColor=#ffffff;verticalAlign=top;strokeWidth=2;strokeColor=#0080F0;shadow=0;dashed=0;shape=mxgraph.ios7.icons.smartphone;" parent="J93vkr9vUSxVD_8UCynu-70" vertex="1"><mxGeometry x="60" y="50" width="60" height="120" as="geometry"/></mxCell><mxCell id="J93vkr9vUSxVD_8UCynu-26" value="&lt;b&gt;Web browser&lt;/b&gt;" style="aspect=fixed;html=1;points=[];align=center;image;fontSize=12;image=img/lib/azure2/general/Browser.svg;" parent="J93vkr9vUSxVD_8UCynu-70" vertex="1"><mxGeometry x="48.75" y="230" width="112.5" height="90" as="geometry"/></mxCell><mxCell id="J93vkr9vUSxVD_8UCynu-79" value="" style="endArrow=classic;startArrow=classic;html=1;rounded=0;exitX=1;exitY=0.5;exitDx=0;exitDy=0;entryX=0;entryY=0.5;entryDx=0;entryDy=0;" parent="1" source="J93vkr9vUSxVD_8UCynu-70" target="J93vkr9vUSxVD_8UCynu-1" edge="1"><mxGeometry width="50" height="50" relative="1" as="geometry"><mxPoint x="-80" y="580" as="sourcePoint"/><mxPoint x="40" y="425" as="targetPoint"/></mxGeometry></mxCell><mxCell id="J93vkr9vUSxVD_8UCynu-80" value="HTTPS" style="edgeLabel;html=1;align=center;verticalAlign=middle;resizable=0;points=[];" parent="J93vkr9vUSxVD_8UCynu-79" vertex="1" connectable="0"><mxGeometry x="-0.0211" y="2" relative="1" as="geometry"><mxPoint as="offset"/></mxGeometry></mxCell><mxCell id="J93vkr9vUSxVD_8UCynu-86" style="edgeStyle=orthogonalEdgeStyle;rounded=0;orthogonalLoop=1;jettySize=auto;html=1;" parent="1" source="J93vkr9vUSxVD_8UCynu-75" edge="1"><mxGeometry relative="1" as="geometry"><mxPoint x="250" y="425" as="targetPoint"/></mxGeometry></mxCell><mxCell id="J93vkr9vUSxVD_8UCynu-130" style="rounded=0;orthogonalLoop=1;jettySize=auto;html=1;" parent="1" target="J93vkr9vUSxVD_8UCynu-71" edge="1"><mxGeometry relative="1" as="geometry"><mxPoint x="40" y="344" as="sourcePoint"/></mxGeometry></mxCell></root></mxGraphModel></diagram><diagram id="MWpfoh0WciRKmX1FBG3R" name="Flows"><mxGraphModel dx="697" dy="830" grid="1" gridSize="10" guides="1" tooltips="1" connect="1" arrows="1" fold="1" page="1" pageScale="1" pageWidth="1169" pageHeight="827" math="0" shadow="0"><root><mxCell id="0"/><mxCell id="1" parent="0"/><mxCell id="AA42oNmSD_O9HBpxzsEr-1" value="Customer registration" style="swimlane;glass=0;sketch=0;" parent="1" vertex="1"><mxGeometry x="40" y="40" width="490" height="540" as="geometry"/></mxCell><mxCell id="beN-ynXTcJFEueBOu2wR-2" value="Start" style="rounded=1;whiteSpace=wrap;html=1;glass=0;sketch=0;" parent="AA42oNmSD_O9HBpxzsEr-1" vertex="1"><mxGeometry x="25" y="50" width="120" height="60" as="geometry"/></mxCell><mxCell id="beN-ynXTcJFEueBOu2wR-3" value="Sign up and enter details" style="rounded=1;whiteSpace=wrap;html=1;glass=0;sketch=0;" parent="AA42oNmSD_O9HBpxzsEr-1" vertex="1"><mxGeometry x="25" y="150" width="120" height="60" as="geometry"/></mxCell><mxCell id="beN-ynXTcJFEueBOu2wR-4" value="" style="edgeStyle=none;rounded=0;orthogonalLoop=1;jettySize=auto;html=1;" parent="AA42oNmSD_O9HBpxzsEr-1" source="beN-ynXTcJFEueBOu2wR-2" target="beN-ynXTcJFEueBOu2wR-3" edge="1"><mxGeometry relative="1" as="geometry"/></mxCell><mxCell id="beN-ynXTcJFEueBOu2wR-5" value="&lt;ol style=&quot;color: rgb(0 , 0 , 0) ; font-size: 15px&quot;&gt;&lt;li&gt;Name&lt;/li&gt;&lt;li&gt;password&lt;/li&gt;&lt;li&gt;confirm password&lt;/li&gt;&lt;li&gt;mobile&lt;/li&gt;&lt;li&gt;email&lt;/li&gt;&lt;li&gt;state&lt;/li&gt;&lt;li&gt;city&lt;/li&gt;&lt;/ol&gt;" style="html=1;shadow=0;dashed=0;shape=mxgraph.bootstrap.rrect;rSize=5;strokeColor=#D2D3D4;html=1;whiteSpace=wrap;fillColor=#F8F9FA;fontColor=#212529;verticalAlign=bottom;align=left;spacing=20;spacingBottom=0;fontSize=14;rounded=0;labelBackgroundColor=none;sketch=0;fontFamily=Verdana;glass=0;" parent="AA42oNmSD_O9HBpxzsEr-1" vertex="1"><mxGeometry x="200" y="50" width="250" height="250" as="geometry"/></mxCell><mxCell id="beN-ynXTcJFEueBOu2wR-6" value="Data" style="html=1;shadow=0;dashed=0;shape=mxgraph.bootstrap.topButton;rSize=5;perimeter=none;whiteSpace=wrap;fillColor=#a20025;strokeColor=#6F0000;resizeWidth=1;fontSize=18;align=left;spacing=20;rounded=0;labelBackgroundColor=none;sketch=0;fontFamily=Verdana;fontColor=#ffffff;gradientDirection=east;gradientColor=#ffffff;glass=0;" parent="beN-ynXTcJFEueBOu2wR-5" vertex="1"><mxGeometry width="250" height="50" relative="1" as="geometry"/></mxCell><mxCell id="beN-ynXTcJFEueBOu2wR-7" value="Required actions: verify email and mobile" style="rounded=1;whiteSpace=wrap;html=1;glass=0;sketch=0;" parent="AA42oNmSD_O9HBpxzsEr-1" vertex="1"><mxGeometry x="25" y="260" width="120" height="60" as="geometry"/></mxCell><mxCell id="beN-ynXTcJFEueBOu2wR-8" value="" style="edgeStyle=none;rounded=0;orthogonalLoop=1;jettySize=auto;html=1;" parent="AA42oNmSD_O9HBpxzsEr-1" source="beN-ynXTcJFEueBOu2wR-3" target="beN-ynXTcJFEueBOu2wR-7" edge="1"><mxGeometry relative="1" as="geometry"/></mxCell><mxCell id="beN-ynXTcJFEueBOu2wR-9" value="Stop" style="whiteSpace=wrap;html=1;rounded=1;glass=0;sketch=0;" parent="AA42oNmSD_O9HBpxzsEr-1" vertex="1"><mxGeometry x="25" y="380" width="120" height="60" as="geometry"/></mxCell><mxCell id="beN-ynXTcJFEueBOu2wR-10" value="" style="edgeStyle=none;rounded=0;orthogonalLoop=1;jettySize=auto;html=1;" parent="AA42oNmSD_O9HBpxzsEr-1" source="beN-ynXTcJFEueBOu2wR-7" target="beN-ynXTcJFEueBOu2wR-9" edge="1"><mxGeometry relative="1" as="geometry"/></mxCell><mxCell id="beN-ynXTcJFEueBOu2wR-11" value="Can use IAM for identity access and management" style="text;html=1;align=center;verticalAlign=middle;resizable=0;points=[];autosize=1;strokeColor=none;fillColor=none;" parent="AA42oNmSD_O9HBpxzsEr-1" vertex="1"><mxGeometry x="185" y="334" width="280" height="20" as="geometry"/></mxCell><mxCell id="AA42oNmSD_O9HBpxzsEr-2" value="Theatre registration" style="swimlane;glass=0;sketch=0;" parent="1" vertex="1"><mxGeometry x="580" y="40" width="490" height="540" as="geometry"/></mxCell><mxCell id="AA42oNmSD_O9HBpxzsEr-3" value="Start" style="rounded=1;whiteSpace=wrap;html=1;glass=0;sketch=0;" parent="AA42oNmSD_O9HBpxzsEr-2" vertex="1"><mxGeometry x="25" y="50" width="120" height="60" as="geometry"/></mxCell><mxCell id="AA42oNmSD_O9HBpxzsEr-4" value="Sign up and enter details" style="rounded=1;whiteSpace=wrap;html=1;glass=0;sketch=0;" parent="AA42oNmSD_O9HBpxzsEr-2" vertex="1"><mxGeometry x="25" y="150" width="120" height="60" as="geometry"/></mxCell><mxCell id="AA42oNmSD_O9HBpxzsEr-5" value="" style="edgeStyle=none;rounded=0;orthogonalLoop=1;jettySize=auto;html=1;" parent="AA42oNmSD_O9HBpxzsEr-2" source="AA42oNmSD_O9HBpxzsEr-3" target="AA42oNmSD_O9HBpxzsEr-4" edge="1"><mxGeometry relative="1" as="geometry"/></mxCell><mxCell id="AA42oNmSD_O9HBpxzsEr-6" value="&lt;ol style=&quot;color: rgb(0 , 0 , 0) ; font-size: 15px&quot;&gt;&lt;li&gt;Name&lt;/li&gt;&lt;li&gt;password&lt;/li&gt;&lt;li&gt;confirm password&lt;/li&gt;&lt;li&gt;mobile&lt;/li&gt;&lt;li&gt;email&lt;/li&gt;&lt;li&gt;state&lt;/li&gt;&lt;li&gt;city&lt;/li&gt;&lt;/ol&gt;" style="html=1;shadow=0;dashed=0;shape=mxgraph.bootstrap.rrect;rSize=5;strokeColor=#D2D3D4;html=1;whiteSpace=wrap;fillColor=#F8F9FA;fontColor=#212529;verticalAlign=bottom;align=left;spacing=20;spacingBottom=0;fontSize=14;rounded=0;labelBackgroundColor=none;sketch=0;fontFamily=Verdana;glass=0;" parent="AA42oNmSD_O9HBpxzsEr-2" vertex="1"><mxGeometry x="200" y="50" width="250" height="250" as="geometry"/></mxCell><mxCell id="AA42oNmSD_O9HBpxzsEr-7" value="Data" style="html=1;shadow=0;dashed=0;shape=mxgraph.bootstrap.topButton;rSize=5;perimeter=none;whiteSpace=wrap;fillColor=#a20025;strokeColor=#6F0000;resizeWidth=1;fontSize=18;align=left;spacing=20;rounded=0;labelBackgroundColor=none;sketch=0;fontFamily=Verdana;fontColor=#ffffff;gradientDirection=east;gradientColor=#ffffff;glass=0;" parent="AA42oNmSD_O9HBpxzsEr-6" vertex="1"><mxGeometry width="250" height="50" relative="1" as="geometry"/></mxCell><mxCell id="AA42oNmSD_O9HBpxzsEr-8" value="Required actions: verify email and mobile" style="rounded=1;whiteSpace=wrap;html=1;glass=0;sketch=0;" parent="AA42oNmSD_O9HBpxzsEr-2" vertex="1"><mxGeometry x="25" y="260" width="120" height="60" as="geometry"/></mxCell><mxCell id="AA42oNmSD_O9HBpxzsEr-9" value="" style="edgeStyle=none;rounded=0;orthogonalLoop=1;jettySize=auto;html=1;" parent="AA42oNmSD_O9HBpxzsEr-2" source="AA42oNmSD_O9HBpxzsEr-4" target="AA42oNmSD_O9HBpxzsEr-8" edge="1"><mxGeometry relative="1" as="geometry"/></mxCell><mxCell id="AA42oNmSD_O9HBpxzsEr-10" value="Stop" style="whiteSpace=wrap;html=1;rounded=1;glass=0;sketch=0;" parent="AA42oNmSD_O9HBpxzsEr-2" vertex="1"><mxGeometry x="25" y="380" width="120" height="60" as="geometry"/></mxCell><mxCell id="AA42oNmSD_O9HBpxzsEr-11" value="" style="edgeStyle=none;rounded=0;orthogonalLoop=1;jettySize=auto;html=1;" parent="AA42oNmSD_O9HBpxzsEr-2" source="AA42oNmSD_O9HBpxzsEr-8" target="AA42oNmSD_O9HBpxzsEr-10" edge="1"><mxGeometry relative="1" as="geometry"/></mxCell><mxCell id="AA42oNmSD_O9HBpxzsEr-12" value="Can use IAM for identity access and management" style="text;html=1;align=center;verticalAlign=middle;resizable=0;points=[];autosize=1;strokeColor=none;fillColor=none;" parent="AA42oNmSD_O9HBpxzsEr-2" vertex="1"><mxGeometry x="185" y="334" width="280" height="20" as="geometry"/></mxCell></root></mxGraphModel></diagram></mxfile>